<svg xmlns="http://www.w3.org/2000/svg" xmlns:xlink="http://www.w3.org/1999/xlink" version="1.1" data-diagram-type="SEQUENCE" style="width:534px;height:356px;background:#FFFFFF;" width="534px" height="356px" viewBox="0 0 534 356" zoomAndPan="magnify" preserveAspectRatio="none" contentStyleType="text/css"><?plantuml 1.2026.7?><defs/><g font-family="sans-serif" lengthAdjust="spacing"><g class="title" data-source-line="16"><text x="55.932" y="28.132" fill="#000" font-size="14" textLength="420.923" font-weight="700" font-family="Arial">US-025-02 — Непринятие заказа без обязательных контуров</text></g><rect x="39.521" y="161.095" width="323.324" height="129.495" fill="none" style="stroke:#94A3B8;stroke-width:1.5;"/><g><title>DataCanvas</title><rect x="52.021" y="78.197" width="8" height="236.393" fill="#000" fill-opacity="0"/><line x1="55.521" y1="78.197" x2="55.521" y2="314.59" style="stroke:#6B7280;stroke-width:0.5;stroke-dasharray:5,5;"/></g><g><title>....... ..........</title><rect x="444.315" y="78.197" width="8" height="236.393" fill="#000" fill-opacity="0"/><line x1="447.815" y1="78.197" x2="447.815" y2="314.59" style="stroke:#6B7280;stroke-width:0.5;stroke-dasharray:5,5;"/></g><rect x="10" y="47.099" width="91.041" height="30.099" fill="#F8FAFC" style="stroke:#2C3E50;stroke-width:0.5;" rx="2.5" ry="2.5"/><text x="17" y="67.23" fill="#111827" font-size="14" textLength="77.041" font-family="Arial">DataCanvas</text><rect x="371.844" y="47.099" width="151.942" height="30.099" fill="#F8FAFC" style="stroke:#2C3E50;stroke-width:0.5;" rx="2.5" ry="2.5"/><text x="378.844" y="67.23" fill="#111827" font-size="14" textLength="137.942" font-family="Arial">Профиль сотрудника</text><rect x="10" y="314.59" width="91.041" height="30.099" fill="#F8FAFC" style="stroke:#2C3E50;stroke-width:0.5;" rx="2.5" ry="2.5"/><text x="17" y="334.722" fill="#111827" font-size="14" textLength="77.041" font-family="Arial">DataCanvas</text><rect x="371.844" y="314.59" width="151.942" height="30.099" fill="#F8FAFC" style="stroke:#2C3E50;stroke-width:0.5;" rx="2.5" ry="2.5"/><text x="378.844" y="334.722" fill="#111827" font-size="14" textLength="137.942" font-family="Arial">Профиль сотрудника</text><polygon points="435.815,103.146,445.815,107.146,435.815,111.146,439.815,107.146" fill="#2C3E50" style="stroke:#2C3E50;stroke-width:1;stroke-linejoin:miter;stroke-miterlimit:10;"/><line x1="55.521" y1="107.146" x2="441.815" y2="107.146" style="stroke:#2C3E50;stroke-width:1;"/><text x="62.521" y="102.391" fill="#000" font-size="13" font-weight="700" font-family="Arial">1</text><text x="73.75" y="102.391" fill="#000" font-size="13" textLength="178.756" font-family="Arial">Получает доступные контуры</text><line x1="55.521" y1="136.095" x2="97.521" y2="136.095" style="stroke:#2C3E50;stroke-width:1;"/><line x1="97.521" y1="136.095" x2="97.521" y2="149.095" style="stroke:#2C3E50;stroke-width:1;"/><line x1="56.521" y1="149.095" x2="97.521" y2="149.095" style="stroke:#2C3E50;stroke-width:1;"/><polygon points="66.521,145.095,56.521,149.095,66.521,153.095,62.521,149.095" fill="#2C3E50" style="stroke:#2C3E50;stroke-width:1;stroke-linejoin:miter;stroke-miterlimit:10;"/><text x="62.521" y="131.34" fill="#000" font-size="13" font-weight="700" font-family="Arial">2</text><text x="73.75" y="131.34" fill="#000" font-size="13" textLength="213.497" font-family="Arial">Сверяет наличие SIGMA и OMEGA</text><path d="M39.521,161.095 L99.691,161.095 L99.691,168.043 L89.691,178.043 L39.521,178.043 L39.521,161.095" style="stroke:#94A3B8;stroke-width:1.5;" fill="#F8FAFC"/><rect x="39.521" y="161.095" width="323.324" height="129.495" fill="none" style="stroke:#94A3B8;stroke-width:1.5;"/><text x="54.521" y="174.289" fill="#000" font-size="13" textLength="15.171" font-weight="700" font-family="Arial">alt</text><text x="114.691" y="173.413" fill="#000" font-size="11" textLength="214.108" font-weight="700" font-family="Arial">[Оба обязательных контура доступны]</text><line x1="55.521" y1="208.992" x2="97.521" y2="208.992" style="stroke:#2C3E50;stroke-width:1;"/><line x1="97.521" y1="208.992" x2="97.521" y2="221.992" style="stroke:#2C3E50;stroke-width:1;"/><line x1="56.521" y1="221.992" x2="97.521" y2="221.992" style="stroke:#2C3E50;stroke-width:1;"/><polygon points="66.521,217.992,56.521,221.992,66.521,225.992,62.521,221.992" fill="#2C3E50" style="stroke:#2C3E50;stroke-width:1;stroke-linejoin:miter;stroke-miterlimit:10;"/><text x="62.521" y="204.237" fill="#000" font-size="13" font-weight="700" font-family="Arial">3</text><text x="73.75" y="204.237" fill="#000" font-size="13" textLength="176.89" font-family="Arial">Продолжает проверку заказа</text><line x1="39.521" y1="230.992" x2="362.844" y2="230.992" style="stroke:#94A3B8;stroke-width:1;stroke-dasharray:2,2;"/><text x="44.521" y="243.31" fill="#000" font-size="11" textLength="285.576" font-weight="700" font-family="Arial">[Не хватает хотя бы одного обязательного контура]</text><line x1="55.521" y1="269.59" x2="97.521" y2="269.59" style="stroke:#2C3E50;stroke-width:1;stroke-dasharray:2,2;"/><line x1="97.521" y1="269.59" x2="97.521" y2="282.59" style="stroke:#2C3E50;stroke-width:1;stroke-dasharray:2,2;"/><line x1="56.521" y1="282.59" x2="97.521" y2="282.59" style="stroke:#2C3E50;stroke-width:1;stroke-dasharray:2,2;"/><polygon points="66.521,278.59,56.521,282.59,66.521,286.59,62.521,282.59" fill="#2C3E50" style="stroke:#2C3E50;stroke-width:1;stroke-linejoin:miter;stroke-miterlimit:10;"/><text x="62.521" y="264.835" fill="#000" font-size="13" font-weight="700" font-family="Arial">4</text><text x="73.75" y="264.835" fill="#000" font-size="13" textLength="266.094" font-family="Arial">Не принимает заказ без раскрытия адресов</text><?plantuml-src ZPFHRX9158RlzocEzRf9eRP5Bqm0MMBIgadZ0upiW9ikE-lih4qq9XHiUe49DzwsZMz0Qx44P7c5Cw_WatXcOO55D5uCoypvpx_Vd7FsGI1Peyb0SV41b8ou5PwuVi0aQqBubZdYrFKRK6TUk1fnU9r5dhA5hrwm9eUYT9ctcidVHTolSVXe0GMbE2qBJqXuc2_lLlPswF3GhVD3r-Sb8Hqkvz7zqa6-OAAlc5HkpGsOhpA2HVggWDLE6b94lZCNsGMxQ9Up8aCw3-TokKB-m73Lb92RxMUXTUEARU_RTXhUP5abUP2nVFoek5igB49_OVraALTv75uVR-_azsZ1hzPNm4iSu5ItS8WJtTDjUWu0xx6F8rhq1BmXnJrWZ3UwPqv8DC2n_a89NNqE98pfRrjto2N6MyiAbZM1hMTCiJBptxDm2rW83crhoJOhmskJhJ_J-yaQz1bjshgbEtY74peacYG_aABkUjooMAI47pNVS6ajFM7xQQfu0dXDE6F2kg2R37GRo2hMPuOKfmRUt7G5NdVNd9OxClk6jsJIeX8aLXFo7EEGl4t1ZfzNZug0GtXvLAaMBUOfm2igNFy_ozR_Wusw-G-Of5WcXHX-fBURpkflA76aEvakMfm-hgJPeCz9OsXcQRGrbUvHdtKN4jS9_Nx7U2Dx6ihGhy6kqvgtfZD6wsSAlE1BPynuKUT7fXTc50rL7-_eU606WcQB-yvl?></g></svg>