<svg xmlns="http://www.w3.org/2000/svg" xmlns:xlink="http://www.w3.org/1999/xlink" version="1.1" data-diagram-type="SEQUENCE" style="width:977px;height:401px;background:#FFFFFF;" width="977px" height="401px" viewBox="0 0 977 401" zoomAndPan="magnify" preserveAspectRatio="none" contentStyleType="text/css"><?plantuml 1.2026.7?><defs/><g font-family="sans-serif" lengthAdjust="spacing"><g class="title" data-source-line="16"><text x="277.012" y="28.132" fill="#000" font-size="14" textLength="421.196" font-weight="700" font-family="Arial">US-027-02 — Сообщение о задержке и успехе после повтора</text></g><g><title>............</title><rect x="55.701" y="123.197" width="8" height="191.692" fill="#000" fill-opacity="0"/><line x1="59.201" y1="123.197" x2="59.201" y2="314.89" style="stroke:#6B7280;stroke-width:0.5;stroke-dasharray:5,5;"/></g><g><title>....</title><rect x="336.185" y="123.197" width="8" height="191.692" fill="#000" fill-opacity="0"/><line x1="339.685" y1="123.197" x2="339.685" y2="314.89" style="stroke:#6B7280;stroke-width:0.5;stroke-dasharray:5,5;"/></g><g><title>.....</title><rect x="622.82" y="123.197" width="8" height="191.692" fill="#000" fill-opacity="0"/><line x1="626.32" y1="123.197" x2="626.32" y2="314.89" style="stroke:#6B7280;stroke-width:0.5;stroke-dasharray:5,5;"/></g><g><title>DataCanvas</title><rect x="917.2" y="123.197" width="8" height="191.692" fill="#000" fill-opacity="0"/><line x1="920.7" y1="123.197" x2="920.7" y2="314.89" style="stroke:#6B7280;stroke-width:0.5;stroke-dasharray:5,5;"/></g><text x="10" y="120.23" fill="#111827" font-size="14" textLength="92.401" font-family="Arial">Пользователь</text><ellipse cx="59.201" cy="55.599" rx="8" ry="8" fill="#EFF6FF" style="stroke:#2C3E50;stroke-width:0.5;"/><path d="M59.201,63.599 L59.201,90.599 M46.201,71.599 L72.201,71.599 M59.201,90.599 L46.201,105.599 M59.201,90.599 L72.201,105.599" style="stroke:#2C3E50;stroke-width:0.5;" fill="none"/><rect x="316.788" y="92.099" width="45.794" height="30.099" fill="#F8FAFC" style="stroke:#2C3E50;stroke-width:0.5;" rx="2.5" ry="2.5"/><text x="323.788" y="112.23" fill="#111827" font-size="14" textLength="31.794" font-family="Arial">Лиса</text><rect x="547.133" y="76" width="158.375" height="46.197" fill="#F8FAFC" style="stroke:#2C3E50;stroke-width:0.5;" rx="2.5" ry="2.5"/><text x="608.133" y="96.132" fill="#111827" font-size="14" textLength="36.374" font-family="Arial">Агент</text><text x="554.133" y="112.23" fill="#111827" font-size="14" textLength="144.375" font-family="Arial">«Справка по клиенту»</text><rect x="875.179" y="92.099" width="91.041" height="30.099" fill="#F8FAFC" style="stroke:#2C3E50;stroke-width:0.5;" rx="2.5" ry="2.5"/><text x="882.179" y="112.23" fill="#111827" font-size="14" textLength="77.041" font-family="Arial">DataCanvas</text><text x="10" y="328.021" fill="#111827" font-size="14" textLength="92.401" font-family="Arial">Пользователь</text><ellipse cx="59.201" cy="339.488" rx="8" ry="8" fill="#EFF6FF" style="stroke:#2C3E50;stroke-width:0.5;"/><path d="M59.201,347.488 L59.201,374.488 M46.201,355.488 L72.201,355.488 M59.201,374.488 L46.201,389.488 M59.201,374.488 L72.201,389.488" style="stroke:#2C3E50;stroke-width:0.5;" fill="none"/><rect x="316.788" y="314.89" width="45.794" height="30.099" fill="#F8FAFC" style="stroke:#2C3E50;stroke-width:0.5;" rx="2.5" ry="2.5"/><text x="323.788" y="335.021" fill="#111827" font-size="14" textLength="31.794" font-family="Arial">Лиса</text><rect x="547.133" y="314.89" width="158.375" height="46.197" fill="#F8FAFC" style="stroke:#2C3E50;stroke-width:0.5;" rx="2.5" ry="2.5"/><text x="608.133" y="335.021" fill="#111827" font-size="14" textLength="36.374" font-family="Arial">Агент</text><text x="554.133" y="351.12" fill="#111827" font-size="14" textLength="144.375" font-family="Arial">«Справка по клиенту»</text><rect x="875.179" y="314.89" width="91.041" height="30.099" fill="#F8FAFC" style="stroke:#2C3E50;stroke-width:0.5;" rx="2.5" ry="2.5"/><text x="882.179" y="335.021" fill="#111827" font-size="14" textLength="77.041" font-family="Arial">DataCanvas</text><polygon points="637.32,148.146,627.32,152.146,637.32,156.146,633.32,152.146" fill="#2C3E50" style="stroke:#2C3E50;stroke-width:1;stroke-linejoin:miter;stroke-miterlimit:10;"/><line x1="631.32" y1="152.146" x2="919.7" y2="152.146" style="stroke:#2C3E50;stroke-width:1;stroke-dasharray:2,2;"/><text x="643.32" y="147.391" fill="#000" font-size="13" font-weight="700" font-family="Arial">1</text><text x="654.55" y="147.391" fill="#000" font-size="13" textLength="259.149" font-family="Arial">Передаёт безопасное состояние задержки</text><polygon points="350.685,177.095,340.685,181.095,350.685,185.095,346.685,181.095" fill="#2C3E50" style="stroke:#2C3E50;stroke-width:1;stroke-linejoin:miter;stroke-miterlimit:10;"/><line x1="344.685" y1="181.095" x2="625.32" y2="181.095" style="stroke:#2C3E50;stroke-width:1;"/><text x="356.685" y="176.34" fill="#000" font-size="13" font-weight="700" font-family="Arial">2</text><text x="367.915" y="176.34" fill="#000" font-size="13" textLength="232.673" font-family="Arial">Передаёт текст о повторных попытках</text><polygon points="70.201,206.043,60.201,210.043,70.201,214.043,66.201,210.043" fill="#2C3E50" style="stroke:#2C3E50;stroke-width:1;stroke-linejoin:miter;stroke-miterlimit:10;"/><line x1="64.201" y1="210.043" x2="338.685" y2="210.043" style="stroke:#2C3E50;stroke-width:1;"/><text x="76.201" y="205.289" fill="#000" font-size="13" font-weight="700" font-family="Arial">3</text><text x="87.431" y="205.289" fill="#000" font-size="13" textLength="245.254" font-family="Arial">Публикует информационное сообщение</text><polygon points="637.32,234.992,627.32,238.992,637.32,242.992,633.32,238.992" fill="#2C3E50" style="stroke:#2C3E50;stroke-width:1;stroke-linejoin:miter;stroke-miterlimit:10;"/><line x1="631.32" y1="238.992" x2="919.7" y2="238.992" style="stroke:#2C3E50;stroke-width:1;stroke-dasharray:2,2;"/><text x="643.32" y="234.237" fill="#000" font-size="13" font-weight="700" font-family="Arial">4</text><text x="654.55" y="234.237" fill="#000" font-size="13" textLength="250.58" font-family="Arial">Подтверждает успех повторной отправки</text><polygon points="350.685,263.941,340.685,267.941,350.685,271.941,346.685,267.941" fill="#2C3E50" style="stroke:#2C3E50;stroke-width:1;stroke-linejoin:miter;stroke-miterlimit:10;"/><line x1="344.685" y1="267.941" x2="625.32" y2="267.941" style="stroke:#2C3E50;stroke-width:1;"/><text x="356.685" y="263.186" fill="#000" font-size="13" font-weight="700" font-family="Arial">5</text><text x="367.915" y="263.186" fill="#000" font-size="13" textLength="251.405" font-family="Arial">Передаёт текст с фактическим временем</text><polygon points="70.201,292.89,60.201,296.89,70.201,300.89,66.201,296.89" fill="#2C3E50" style="stroke:#2C3E50;stroke-width:1;stroke-linejoin:miter;stroke-miterlimit:10;"/><line x1="64.201" y1="296.89" x2="338.685" y2="296.89" style="stroke:#2C3E50;stroke-width:1;"/><text x="76.201" y="292.135" fill="#000" font-size="13" font-weight="700" font-family="Arial">6</text><text x="87.431" y="292.135" fill="#000" font-size="13" textLength="198.021" font-family="Arial">Публикует сообщение об успехе</text><?plantuml-src bL9DRzD04BtxLmpb7Ab9eGaSa99GSwaG4kB6PN4smQfZX_MQIY2aV10G0WcGk750dBcufOQGf8dKNp3x5_Wbp3Xk4uS0GfRbcNapRzyyxwME4gss02s39w1L9AtmmFKxGeasX0z58pXq_HOqXHUk8WtP596dxS3NjqLRGbMvmbkTb8yYwJiIdbf0e0eEwu4NABXSgk_iNTscuhxRbFkkBsk1QaYLeRkrSgd2w1sXjEku7U7hNCF5-6g3S0vQAeZyHjPaL-ogNSytiT8CBXQBbLAPTJawK9lf5z0wyPvjxzhsERo9yXQrTtAKrwvKTsgL2-WFMfzPsjMUX7jt2zkbChtmi_i1y3FEw3aohp31KnnX0ZW3_8undc1YklWDnrmRWHcO7iwfDkHyZZDA9rc8nwPFXIx6bYLOE6pX9ofFp1kY8XXZQaWutm8HGXHAPNMMrb7xHnmHOPp2dXkADVWTVcM1fd_VF_j2ekTy6F6ECKuL04KJbiyzPd0sIOaSpvM-pbFT55hKXVzOX6bBWr8dJKbwf0C_QZyWSSio50etCgBhG5knAGcP4vltfWzuH0clEAT2ZnoSaIKKa3kf9M_FJSqxEh8MZ43SlEq6vjImCTEaVsJLvLFpsWmNfJc5VNR132qcOa9sbmdDWDInAMEA4kOPqUZpb69A4oyedv6-fUZyJVYB2JCyeMEFitr8Sig_l29hUYd-GLjGklnl_sU1wG4fZodhqqLvIOqzvi0fq2ayCqrLq_VVDlo-AN2Qk-6_0000?></g></svg>