<svg xmlns="http://www.w3.org/2000/svg" xmlns:xlink="http://www.w3.org/1999/xlink" version="1.1" data-diagram-type="SEQUENCE" style="width:801px;height:325px;background:#FFFFFF;" width="801px" height="325px" viewBox="0 0 801 325" zoomAndPan="magnify" preserveAspectRatio="none" contentStyleType="text/css"><?plantuml 1.2026.7?><defs/><g font-family="sans-serif" lengthAdjust="spacing"><g class="title" data-source-line="16"><text x="201.753" y="28.132" fill="#000" font-size="14" textLength="395.767" font-weight="700" font-family="Arial">US-029-01 — Подготовка только из проверенных фактов</text></g><rect x="39.521" y="190.043" width="339.675" height="68.897" fill="none" style="stroke:#94A3B8;stroke-width:1.5;"/><g><title>DataCanvas</title><rect x="52.021" y="78.197" width="8" height="204.744" fill="#000" fill-opacity="0"/><line x1="55.521" y1="78.197" x2="55.521" y2="282.941" style="stroke:#6B7280;stroke-width:0.5;stroke-dasharray:5,5;"/></g><g><title>.......... ...........</title><rect x="472.343" y="78.197" width="8" height="204.744" fill="#000" fill-opacity="0"/><line x1="475.843" y1="78.197" x2="475.843" y2="282.941" style="stroke:#6B7280;stroke-width:0.5;stroke-dasharray:5,5;"/></g><rect x="10" y="47.099" width="91.041" height="30.099" fill="#F8FAFC" style="stroke:#2C3E50;stroke-width:0.5;" rx="2.5" ry="2.5"/><text x="17" y="67.23" fill="#111827" font-size="14" textLength="77.041" font-family="Arial">DataCanvas</text><rect x="388.196" y="47.099" width="175.294" height="30.099" fill="#F8FAFC" style="stroke:#2C3E50;stroke-width:0.5;" rx="2.5" ry="2.5"/><text x="395.196" y="67.23" fill="#111827" font-size="14" textLength="161.294" font-family="Arial">Подготовка презентации</text><rect x="10" y="282.941" width="91.041" height="30.099" fill="#F8FAFC" style="stroke:#2C3E50;stroke-width:0.5;" rx="2.5" ry="2.5"/><text x="17" y="303.073" fill="#111827" font-size="14" textLength="77.041" font-family="Arial">DataCanvas</text><rect x="388.196" y="282.941" width="175.294" height="30.099" fill="#F8FAFC" style="stroke:#2C3E50;stroke-width:0.5;" rx="2.5" ry="2.5"/><text x="395.196" y="303.073" fill="#111827" font-size="14" textLength="161.294" font-family="Arial">Подготовка презентации</text><polygon points="463.843,103.146,473.843,107.146,463.843,111.146,467.843,107.146" fill="#2C3E50" style="stroke:#2C3E50;stroke-width:1;stroke-linejoin:miter;stroke-miterlimit:10;"/><line x1="55.521" y1="107.146" x2="469.843" y2="107.146" style="stroke:#2C3E50;stroke-width:1;"/><text x="62.521" y="102.391" fill="#000" font-size="13" font-weight="700" font-family="Arial">1</text><text x="73.75" y="102.391" fill="#000" font-size="13" textLength="186.196" font-family="Arial">Передаёт проверенные факты</text><line x1="475.843" y1="136.095" x2="517.843" y2="136.095" style="stroke:#2C3E50;stroke-width:1;"/><line x1="517.843" y1="136.095" x2="517.843" y2="149.095" style="stroke:#2C3E50;stroke-width:1;"/><line x1="476.843" y1="149.095" x2="517.843" y2="149.095" style="stroke:#2C3E50;stroke-width:1;"/><polygon points="486.843,145.095,476.843,149.095,486.843,153.095,482.843,149.095" fill="#2C3E50" style="stroke:#2C3E50;stroke-width:1;stroke-linejoin:miter;stroke-miterlimit:10;"/><text x="482.843" y="131.34" fill="#000" font-size="13" font-weight="700" font-family="Arial">2</text><text x="494.073" y="131.34" fill="#000" font-size="13" textLength="289.199" font-family="Arial">Упорядочивает и сокращает без смены смысла</text><polygon points="66.521,174.043,56.521,178.043,66.521,182.043,62.521,178.043" fill="#2C3E50" style="stroke:#2C3E50;stroke-width:1;stroke-linejoin:miter;stroke-miterlimit:10;"/><line x1="60.521" y1="178.043" x2="474.843" y2="178.043" style="stroke:#2C3E50;stroke-width:1;stroke-dasharray:2,2;"/><text x="72.521" y="173.289" fill="#000" font-size="13" font-weight="700" font-family="Arial">3</text><text x="83.75" y="173.289" fill="#000" font-size="13" textLength="270.474" font-family="Arial">Возвращает только допустимое содержание</text><path d="M39.521,190.043 L99.691,190.043 L99.691,196.992 L89.691,206.992 L39.521,206.992 L39.521,190.043" style="stroke:#94A3B8;stroke-width:1.5;" fill="#F8FAFC"/><rect x="39.521" y="190.043" width="339.675" height="68.897" fill="none" style="stroke:#94A3B8;stroke-width:1.5;"/><text x="54.521" y="203.237" fill="#000" font-size="13" textLength="15.171" font-weight="700" font-family="Arial">alt</text><text x="114.691" y="202.361" fill="#000" font-size="11" textLength="210.262" font-weight="700" font-family="Arial">[Обязательных фактов недостаточно]</text><line x1="55.521" y1="237.941" x2="97.521" y2="237.941" style="stroke:#2C3E50;stroke-width:1;stroke-dasharray:2,2;"/><line x1="97.521" y1="237.941" x2="97.521" y2="250.941" style="stroke:#2C3E50;stroke-width:1;stroke-dasharray:2,2;"/><line x1="56.521" y1="250.941" x2="97.521" y2="250.941" style="stroke:#2C3E50;stroke-width:1;stroke-dasharray:2,2;"/><polygon points="66.521,246.941,56.521,250.941,66.521,254.941,62.521,250.941" fill="#2C3E50" style="stroke:#2C3E50;stroke-width:1;stroke-linejoin:miter;stroke-miterlimit:10;"/><text x="62.521" y="233.186" fill="#000" font-size="13" font-weight="700" font-family="Arial">4</text><text x="73.75" y="233.186" fill="#000" font-size="13" textLength="282.445" font-family="Arial">Возвращает заказ на дополнение до принятия</text><?plantuml-src ZLBTRX915BxVfpZMQv92jQLUc01slMcCYV41HdR0JPUPTPYrYSO4y2y64wBnMYzy0OfT8LIsht3c5NmIpmmKTYqcNktC-SxvVkRiZLYnTeU1vl85Q9LmhtiIYfWfre7kKnR8qr2qeSMYRXu9U8ibaVQbq0zOXqDDXIpAJ_9d2HTD3Yyz8539quQCf8ARbSRUqUrTAXw7BNuS2bwNAk1gXUxN3ofLYpvaIeVDC6P25nhMu_a6rZnfAvc8ODNaL_sQtoWsMQShk5mkLoi7rbTJIxMTVWdzJNpa-_k-VmLlexnFxN61yl1MRQzUNKF_yFhAqw6EE3n-LDgj79Pso_2xzmNm6sPuZZymCmCwJN2EOt372_EHBXdW3AU0bwRdu9I-AIvmOORcBPWtECRvSjBpuirRmCuzfbc3YUUikmEi2m5Tc-vQRDkgxzHId5ebAe_DEp8nSponudRzEfJ2yrYYfKWwJxZoDlnGkfllkcCZBbsV4zCdCzWQ1jDr63FqSlFNwRxZ9RdjcH4HPkOzMPlGO6g9Ps3wn3mdth7vS5Kziraiyii56heZlLyVBt1Sr2AnJHBI-aniKvmK-8hR8G-KvxNfKtb62fbDqdUFQkFzfA450Qd78Wtu5S_8zvJO1kJ5abnV9D10whBrtUCFNCe5PlI7vP_vVxnQARjI-mijx6QTNUlVYJXdhhXSoepiZ6mGC_Au2Fu0?></g></svg>