<svg xmlns="http://www.w3.org/2000/svg" xmlns:xlink="http://www.w3.org/1999/xlink" version="1.1" data-diagram-type="SEQUENCE" style="width:1158px;height:373px;background:#FFFFFF;" width="1158px" height="373px" viewBox="0 0 1158 373" zoomAndPan="magnify" preserveAspectRatio="none" contentStyleType="text/css"><?plantuml 1.2026.7?><defs/><g font-family="sans-serif" lengthAdjust="spacing"><g class="title" data-source-line="16"><text x="388.989" y="28.132" fill="#000" font-size="14" textLength="378.738" font-weight="700" font-family="Arial">US-023-03 — Исправление данных до принятия заказа</text></g><g><title>............</title><rect x="55.701" y="123.197" width="8" height="162.744" fill="#000" fill-opacity="0"/><line x1="59.201" y1="123.197" x2="59.201" y2="285.941" style="stroke:#6B7280;stroke-width:0.5;stroke-dasharray:5,5;"/></g><g><title>....</title><rect x="303.107" y="123.197" width="8" height="162.744" fill="#000" fill-opacity="0"/><line x1="306.607" y1="123.197" x2="306.607" y2="285.941" style="stroke:#6B7280;stroke-width:0.5;stroke-dasharray:5,5;"/></g><g><title>.....</title><rect x="632.958" y="123.197" width="8" height="162.744" fill="#000" fill-opacity="0"/><line x1="636.458" y1="123.197" x2="636.458" y2="285.941" style="stroke:#6B7280;stroke-width:0.5;stroke-dasharray:5,5;"/></g><g><title>.......... .....</title><rect x="792.883" y="123.197" width="8" height="162.744" fill="#000" fill-opacity="0"/><line x1="796.383" y1="123.197" x2="796.383" y2="285.941" style="stroke:#6B7280;stroke-width:0.5;stroke-dasharray:5,5;"/></g><g><title>DataCanvas</title><rect x="1098.695" y="123.197" width="8" height="162.744" fill="#000" fill-opacity="0"/><line x1="1102.195" y1="123.197" x2="1102.195" y2="285.941" style="stroke:#6B7280;stroke-width:0.5;stroke-dasharray:5,5;"/></g><text x="10" y="120.23" fill="#111827" font-size="14" textLength="92.401" font-family="Arial">Пользователь</text><ellipse cx="59.201" cy="55.599" rx="8" ry="8" fill="#EFF6FF" style="stroke:#2C3E50;stroke-width:0.5;"/><path d="M59.201,63.599 L59.201,90.599 M46.201,71.599 L72.201,71.599 M59.201,90.599 L46.201,105.599 M59.201,90.599 L72.201,105.599" style="stroke:#2C3E50;stroke-width:0.5;" fill="none"/><rect x="283.71" y="92.099" width="45.794" height="30.099" fill="#F8FAFC" style="stroke:#2C3E50;stroke-width:0.5;" rx="2.5" ry="2.5"/><text x="290.71" y="112.23" fill="#111827" font-size="14" textLength="31.794" font-family="Arial">Лиса</text><rect x="557.27" y="76" width="158.375" height="46.197" fill="#F8FAFC" style="stroke:#2C3E50;stroke-width:0.5;" rx="2.5" ry="2.5"/><text x="618.271" y="96.132" fill="#111827" font-size="14" textLength="36.374" font-family="Arial">Агент</text><text x="564.27" y="112.23" fill="#111827" font-size="14" textLength="144.375" font-family="Arial">«Справка по клиенту»</text><rect x="725.645" y="92.099" width="141.477" height="30.099" fill="#F8FAFC" style="stroke:#2C3E50;stroke-width:0.5;" rx="2.5" ry="2.5"/><text x="732.645" y="112.23" fill="#111827" font-size="14" textLength="127.477" font-family="Arial">Вызывающий агент</text><rect x="1056.674" y="92.099" width="91.041" height="30.099" fill="#F8FAFC" style="stroke:#2C3E50;stroke-width:0.5;" rx="2.5" ry="2.5"/><text x="1063.674" y="112.23" fill="#111827" font-size="14" textLength="77.041" font-family="Arial">DataCanvas</text><text x="10" y="299.073" fill="#111827" font-size="14" textLength="92.401" font-family="Arial">Пользователь</text><ellipse cx="59.201" cy="310.54" rx="8" ry="8" fill="#EFF6FF" style="stroke:#2C3E50;stroke-width:0.5;"/><path d="M59.201,318.54 L59.201,345.54 M46.201,326.54 L72.201,326.54 M59.201,345.54 L46.201,360.54 M59.201,345.54 L72.201,360.54" style="stroke:#2C3E50;stroke-width:0.5;" fill="none"/><rect x="283.71" y="285.941" width="45.794" height="30.099" fill="#F8FAFC" style="stroke:#2C3E50;stroke-width:0.5;" rx="2.5" ry="2.5"/><text x="290.71" y="306.073" fill="#111827" font-size="14" textLength="31.794" font-family="Arial">Лиса</text><rect x="557.27" y="285.941" width="158.375" height="46.197" fill="#F8FAFC" style="stroke:#2C3E50;stroke-width:0.5;" rx="2.5" ry="2.5"/><text x="618.271" y="306.073" fill="#111827" font-size="14" textLength="36.374" font-family="Arial">Агент</text><text x="564.27" y="322.171" fill="#111827" font-size="14" textLength="144.375" font-family="Arial">«Справка по клиенту»</text><rect x="725.645" y="285.941" width="141.477" height="30.099" fill="#F8FAFC" style="stroke:#2C3E50;stroke-width:0.5;" rx="2.5" ry="2.5"/><text x="732.645" y="306.073" fill="#111827" font-size="14" textLength="127.477" font-family="Arial">Вызывающий агент</text><rect x="1056.674" y="285.941" width="91.041" height="30.099" fill="#F8FAFC" style="stroke:#2C3E50;stroke-width:0.5;" rx="2.5" ry="2.5"/><text x="1063.674" y="306.073" fill="#111827" font-size="14" textLength="77.041" font-family="Arial">DataCanvas</text><polygon points="317.607,148.146,307.607,152.146,317.607,156.146,313.607,152.146" fill="#2C3E50" style="stroke:#2C3E50;stroke-width:1;stroke-linejoin:miter;stroke-miterlimit:10;"/><line x1="311.607" y1="152.146" x2="635.458" y2="152.146" style="stroke:#2C3E50;stroke-width:1;"/><text x="323.607" y="147.391" fill="#000" font-size="13" font-weight="700" font-family="Arial">1</text><text x="334.837" y="147.391" fill="#000" font-size="13" textLength="294.62" font-family="Arial">Сообщает о непринятии в продолжении справки</text><polygon points="70.201,177.095,60.201,181.095,70.201,185.095,66.201,181.095" fill="#2C3E50" style="stroke:#2C3E50;stroke-width:1;stroke-linejoin:miter;stroke-miterlimit:10;"/><line x1="64.201" y1="181.095" x2="305.607" y2="181.095" style="stroke:#2C3E50;stroke-width:1;"/><text x="76.201" y="176.34" fill="#000" font-size="13" font-weight="700" font-family="Arial">2</text><text x="87.431" y="176.34" fill="#000" font-size="13" textLength="212.177" font-family="Arial">Показывает безопасный результат</text><polygon points="294.607,206.043,304.607,210.043,294.607,214.043,298.607,210.043" fill="#2C3E50" style="stroke:#2C3E50;stroke-width:1;stroke-linejoin:miter;stroke-miterlimit:10;"/><line x1="59.201" y1="210.043" x2="300.607" y2="210.043" style="stroke:#2C3E50;stroke-width:1;"/><text x="66.201" y="205.289" fill="#000" font-size="13" font-weight="700" font-family="Arial">3</text><text x="77.431" y="205.289" fill="#000" font-size="13" textLength="200.776" font-family="Arial">Исправляет доступные сведения</text><polygon points="784.383,234.992,794.383,238.992,784.383,242.992,788.383,238.992" fill="#2C3E50" style="stroke:#2C3E50;stroke-width:1;stroke-linejoin:miter;stroke-miterlimit:10;"/><line x1="306.607" y1="238.992" x2="790.383" y2="238.992" style="stroke:#2C3E50;stroke-width:1;"/><text x="313.607" y="234.237" fill="#000" font-size="13" font-weight="700" font-family="Arial">4</text><text x="324.837" y="234.237" fill="#000" font-size="13" textLength="199.45" font-family="Arial">Передаёт обновлённый контекст</text><polygon points="1090.195,263.941,1100.195,267.941,1090.195,271.941,1094.195,267.941" fill="#2C3E50" style="stroke:#2C3E50;stroke-width:1;stroke-linejoin:miter;stroke-miterlimit:10;"/><line x1="796.383" y1="267.941" x2="1096.195" y2="267.941" style="stroke:#2C3E50;stroke-width:1;"/><text x="803.383" y="263.186" fill="#000" font-size="13" font-weight="700" font-family="Arial">5</text><text x="814.613" y="263.186" fill="#000" font-size="13" textLength="270.582" font-family="Arial">Направляет обновлённый заказ на проверку</text><?plantuml-src TPBFQnD15CVl-rUCzHne4csZ1o69NIz51F7cPTnCujBDRfoTjQ08JO87gHWh7WGHyUmbZLsxRjWK-XUy-HVyItnl9asJs1AMCE_7vttVT-P6J_9EbpCbebTCoKGuyPuVzhZaNHO_vwretmyxhCs3U3dJ4csU1CgDGlMGTmMhIvy7ovtYHI92Jx3N3iEaZFQRKH19ThFIhExStiJWhjyMktue6f5i2JdFRZMsApNAFk9I-PxVuw5QALYqBnTmRwyZeoHipOlScbjtcwj5f7IUBfVBjSeswV9K9A_6szGwUCTrjrpt8dqLyW6MzrQGTsxLgutQ8dMDrZUEybKWs9F7fSrAjRHPPNyFFZFueljmfWzW31EOGWe5P90oEC500OK-r6_fC6EcACF8I0yWqoC6frYIuuV_ZiD9Bjk0xp23gNwFmHa2nrYRqdc3yPWbiP1Exz8mBF-Ag3wCJJhmOxwM_WY_I98UF0tFVyAFXL0SYu98LOwYCrkZX-TJ0_82NuHg3VL97y8fVYJgWtw7JNyOikPysyU3O5tXVQvuauSlUMnAMdZqp15NJbGK9jrds68dij8ziyHTXb9d-3l6EMD8zO2Hr097hPW86OE9DNP67kCgl-StaB6bQyaXSuXBVF8G-MIpyTvkP6SSOpFvVeOhzkdkS4L4O50FwH9m9bw8GuWbgIiFG8yi2jNeFbcAC0Abf6U2g1ChK8yMYgnhHbDgfk7JqKTcPrHKc7SmrKVsDP7fEOOAyp1ock5O0A4ktKNSDrJqdwvha8kdI2wFBooT646v7lu3?></g></svg>